<?xml version="1.0" encoding="UTF-8"?>
<svg width="184px" height="39px" viewBox="0 0 184 39" version="1.1" xmlns="http://www.w3.org/2000/svg" xmlns:xlink="http://www.w3.org/1999/xlink">
    <title>eikonica</title>
    <g id="Page-1" stroke="none" stroke-width="1" fill="none" fill-rule="evenodd">
        <g id="eikonica-click" transform="translate(-173, -3482)" fill="#000000" fill-rule="nonzero">
            <g id="footer" transform="translate(0, 3426)">
                <g id="nav" transform="translate(172, 56)">
                    <g id="eikonica" transform="translate(1, 0)">
                        <path d="M24,18.3543788 L24,24.5498982 C24,25.7148676 23.0226244,26.6150713 21.8823529,26.6150713 L6.73303167,26.6150713 C5.53846154,26.6150713 4.61538462,27.5682281 4.61538462,28.6802444 L4.61538462,30.1629328 C4.61538462,30.6924644 4.83257919,31.2219959 5.21266968,31.6456212 L7.05882353,33.4460285 C7.43891403,33.8167006 7.98190045,34.0285132 8.57918552,34.0285132 L16.2895928,34.0285132 C16.8325792,34.0285132 17.3755656,33.8167006 17.8099548,33.4460285 L19.438914,31.8574338 C20.2533937,31.0631365 21.6108597,31.0631365 22.4253394,31.8574338 L22.4253394,31.8574338 C23.239819,32.6517312 23.239819,33.9755601 22.4253394,34.7698574 L19.7104072,37.4175153 C19.3303167,37.7881874 18.7873303,38 18.1900452,38 L6.5158371,38 C5.97285068,38 5.42986425,37.7881874 4.99547511,37.4175153 L0.597285068,33.1283096 C0.21719457,32.7576375 0,32.2281059 0,31.6985743 L0,18.3543788 C0,17.8248473 0.21719457,17.2953157 0.597285068,16.8716904 L4.99547511,12.5824847 C5.37556561,12.2118126 5.91855204,12 6.5158371,12 L17.4298643,12 C17.9728507,12 18.5158371,12.2118126 18.9502262,12.5824847 L23.3484163,16.8716904 C23.7285068,17.2953157 24,17.8248473 24,18.3543788 Z M19.3846154,20.6313646 L19.3846154,19.8370672 C19.3846154,19.3075356 19.1674208,18.7780041 18.7873303,18.3543788 L16.8868778,16.5539715 C16.5067873,16.1832994 15.9638009,15.9714868 15.3665158,15.9714868 L8.57918552,15.9714868 C8.0361991,15.9714868 7.49321267,16.1832994 7.05882353,16.5539715 L5.21266968,18.3543788 C4.83257919,18.7250509 4.61538462,19.2545825 4.61538462,19.8370672 L4.61538462,20.6313646 C4.61538462,21.796334 5.59276018,22.6965377 6.73303167,22.6965377 L17.2669683,22.6965377 C18.4072398,22.7494908 19.3846154,21.796334 19.3846154,20.6313646 Z" id="Shape"></path>
                        <path d="M30.5011226,0 L30.5011226,0 C31.8695555,0 33,1.0069735 33,2.22594142 L33,3.55090656 C33,4.76987448 31.8695555,5.77684798 30.5011226,5.77684798 L30.5011226,5.77684798 C29.1326898,5.77684798 28.0022453,4.76987448 28.0022453,3.55090656 L28.0022453,2.22594142 C27.9427482,1.0069735 29.0731927,0 30.5011226,0 Z M30.5011226,11.9776848 L30.5011226,11.9776848 C31.8695555,11.9776848 33,12.9846583 33,14.2036262 L33,35.7740586 C33,36.9930265 31.8695555,38 30.5011226,38 L30.5011226,38 C29.1326898,38 28.0022453,36.9930265 28.0022453,35.7740586 L28.0022453,14.2036262 C27.9427482,12.9846583 29.0731927,11.9776848 30.5011226,11.9776848 Z" id="Shape"></path>
                        <path d="M56.1173898,38.3553719 L47.9526594,29.9214876 C46.6802339,28.5785124 44.4534893,29.5454545 44.4534893,31.3719008 L44.4534893,36.9586777 C44.4534893,38.0867769 43.5521879,39 42.4388156,39 L42.0146737,39 C40.9013014,39 40,38.0867769 40,36.9586777 L40,2.04132231 C40,0.91322314 40.9013014,0 42.0146737,0 L42.4388156,0 C43.5521879,0 44.4534893,0.91322314 44.4534893,2.04132231 L44.4534893,19.768595 C44.4534893,21.5950413 46.6802339,22.5619835 47.9526594,21.2190083 L55.7462657,13.161157 C56.1173898,12.785124 56.6475671,12.5165289 57.1777444,12.5165289 L57.1777444,12.5165289 C58.9803472,12.5165289 59.8816486,14.7190083 58.6092231,16.0082645 L50.97467,23.9586777 C50.1794041,24.7644628 50.1794041,26.053719 50.97467,26.8595041 L59.404489,35.4545455 C60.6769145,36.7438017 59.7756131,38.946281 57.9730103,38.946281 L57.6018862,38.946281 C57.0186912,39 56.5415316,38.785124 56.1173898,38.3553719 Z" id="Path"></path>
                        <path d="M89,19.5877551 L89,30.4122449 C89,31.7918367 88.4545455,33.0653061 87.4727273,34.0204082 L84.9090909,36.5142857 C83.9272727,37.4693878 82.5636364,38 81.2,38 L72.8,38 C71.3818182,38 70.0727273,37.4693878 69.0909091,36.5142857 L66.5272727,34.0204082 C65.5454545,33.0653061 65,31.7387755 65,30.4122449 L65,19.5877551 C65,18.2081633 65.5454545,16.9346939 66.5272727,15.9795918 L69.0909091,13.4857143 C70.0727273,12.5306122 71.4363636,12 72.8,12 L81.2,12 C82.6181818,12 83.9272727,12.5306122 84.9090909,13.4857143 L87.4727273,15.9795918 C88.4545455,16.9346939 89,18.2081633 89,19.5877551 Z M84.4181818,28.9265306 L84.4181818,21.0734694 C84.4181818,19.6938776 83.8727273,18.4204082 82.8909091,17.4653061 L82.8909091,17.4653061 C81.8545455,16.5102041 80.5454545,15.9795918 79.1272727,15.9795918 L74.8181818,15.9795918 C73.4,15.9795918 72.0909091,16.5102041 71.1090909,17.4653061 L71.1090909,17.4653061 C70.1272727,18.4204082 69.5818182,19.7469388 69.5818182,21.0734694 L69.5818182,28.9265306 C69.5818182,30.3061224 70.1272727,31.5795918 71.1090909,32.5346939 L71.1090909,32.5346939 C72.0909091,33.4897959 73.4545455,34.0204082 74.8181818,34.0204082 L79.1272727,34.0204082 C80.5454545,34.0204082 81.8545455,33.4897959 82.8363636,32.5346939 L82.8363636,32.5346939 C83.8727273,31.5795918 84.4181818,30.2530612 84.4181818,28.9265306 Z" id="Shape"></path>
                        <path d="M118,17.465587 L118,37.3603239 C118,38.2348178 117.299766,38.9453441 116.437939,38.9453441 L114.983607,38.9453441 C114.12178,38.9453441 113.421546,38.2348178 113.421546,37.3603239 L113.421546,19.2145749 C113.421546,18.7773279 113.259953,18.3947368 112.936768,18.0668016 L111.5363,16.645749 C111.266979,16.3724696 110.836066,16.1538462 110.405152,16.1538462 L105.34192,16.1538462 C104.911007,16.1538462 104.533958,16.3178138 104.210773,16.645749 L100.063232,20.854251 C99.793911,21.1275304 99.5784543,21.5647773 99.5784543,22.0020243 L99.5784543,37.4149798 C99.5784543,38.2894737 98.8782201,39 98.0163934,39 L96.5620609,39 C95.7002342,39 95,38.2894737 95,37.4149798 L95,13.6396761 C95,12.7651822 95.7002342,12.0546559 96.5620609,12.0546559 L97.6393443,12.0546559 C98.501171,12.0546559 99.147541,12.7105263 99.2014052,13.5850202 L99.2014052,13.5850202 C99.2552693,14.951417 100.925059,15.6072874 101.894614,14.6234818 L103.995316,12.4919028 C104.264637,12.2186235 104.69555,12 105.126464,12 L112.613583,12 C113.044496,12 113.421546,12.1639676 113.744731,12.4919028 L117.515222,16.3178138 C117.838407,16.645749 118,17.0283401 118,17.465587 Z" id="Path"></path>
                        <path d="M126.5,0 L126.5,0 C127.869048,0 129,1.0069735 129,2.22594142 L129,3.55090656 C129,4.76987448 127.869048,5.77684798 126.5,5.77684798 L126.5,5.77684798 C125.130952,5.77684798 124,4.76987448 124,3.55090656 L124,2.22594142 C124,1.0069735 125.130952,0 126.5,0 Z M126.5,11.9776848 L126.5,11.9776848 C127.869048,11.9776848 129,12.9846583 129,14.2036262 L129,35.7740586 C129,36.9930265 127.869048,38 126.5,38 L126.5,38 C125.130952,38 124,36.9930265 124,35.7740586 L124,14.2036262 C124,12.9846583 125.130952,11.9776848 126.5,11.9776848 Z" id="Shape"></path>
                        <path d="M157.395235,34.7764228 L154.707392,37.4186992 C154.331093,37.7886179 153.793525,38 153.202199,38 L142.450825,38 C141.913256,38 141.375687,37.7886179 140.945632,37.4186992 L136.591326,33.1382114 C136.215027,32.7682927 136,32.2398374 136,31.6585366 L136,18.3414634 C136,17.8130081 136.215027,17.2845528 136.591326,16.8617886 L140.945632,12.5813008 C141.32193,12.2113821 141.859499,12 142.450825,12 L152.933415,12 C153.470984,12 154.008552,12.2113821 154.438607,12.5813008 L157.126451,15.2235772 C157.932804,16.0162602 157.932804,17.3373984 157.126451,18.1300813 L157.126451,18.1300813 C156.320098,18.9227642 154.976176,18.9227642 154.169823,18.1300813 L152.610874,16.597561 C152.234575,16.2276423 151.697007,16.0162602 151.105681,16.0162602 L144.493586,16.0162602 C143.956017,16.0162602 143.418448,16.2276423 142.988393,16.597561 L141.214417,18.3414634 C140.838119,18.7113821 140.623091,19.2398374 140.623091,19.8211382 L140.623091,30.1260163 C140.623091,30.6544715 140.838119,31.1829268 141.214417,31.6056911 L142.988393,33.3495935 C143.364692,33.7195122 143.90226,33.9308943 144.493586,33.9308943 L151.374465,33.9308943 C151.912034,33.9308943 152.449603,33.7195122 152.879658,33.3495935 L154.438607,31.8170732 C155.24496,31.0243902 156.588882,31.0243902 157.395235,31.8170732 L157.395235,31.8170732 C158.201588,32.6626016 158.201588,33.9837398 157.395235,34.7764228 Z" id="Path"></path>
                        <path d="M184,17.465587 L184,37.3603239 C184,38.2348178 183.294118,38.9453441 182.425339,38.9453441 L181.339367,38.9453441 C180.470588,38.9453441 179.819005,38.2894737 179.764706,37.4149798 L179.764706,37.4149798 C179.710407,36.048583 178.027149,35.3927126 177.049774,36.3765182 L174.932127,38.5080972 C174.660633,38.7813765 174.226244,39 173.791855,39 L165.266968,39 C164.832579,39 164.452489,38.8360324 164.126697,38.5080972 L160.488688,34.8461538 C160.217195,34.5728745 160,34.1356275 160,33.6983806 L160,28.7246964 C160,28.2874494 160.162896,27.9048583 160.488688,27.5769231 L163.58371,24.4615385 C163.855204,24.1882591 164.235294,24.0242915 164.615385,24.0242915 L177.809955,23.0951417 C178.624434,23.0404858 179.276018,22.3299595 179.276018,21.5101215 L179.276018,19.159919 C179.276018,18.7226721 179.113122,18.340081 178.78733,18.0121457 L177.321267,16.5364372 C177.049774,16.2631579 176.615385,16.0445344 176.180995,16.0445344 L167.927602,16.0445344 C167.493213,16.0445344 167.113122,16.208502 166.78733,16.5364372 L164.778281,18.5587045 C164.180995,19.159919 163.149321,19.159919 162.552036,18.5587045 L161.791855,17.7935223 C161.19457,17.1923077 161.19457,16.1538462 161.791855,15.5526316 L164.832579,12.4919028 C165.104072,12.2186235 165.538462,12 165.972851,12 L178.515837,12 C178.950226,12 179.330317,12.1639676 179.656109,12.4919028 L183.457014,16.3178138 C183.837104,16.645749 184,17.0283401 184,17.465587 Z M179.384615,28.9979757 L179.384615,28.7793522 C179.384615,27.8502024 178.624434,27.1396761 177.701357,27.194332 L166.895928,27.9595142 C166.515837,27.9595142 166.135747,28.1234818 165.918552,28.3967611 L165.21267,29.1072874 C164.941176,29.3805668 164.723982,29.8178138 164.723982,30.2550607 L164.723982,32.1133603 C164.723982,32.5506073 164.886878,32.9331984 165.21267,33.2611336 L166.298643,34.354251 C166.570136,34.6275304 167.004525,34.8461538 167.438914,34.8461538 L173.628959,34.8461538 C174.063348,34.8461538 174.443439,34.6821862 174.769231,34.354251 L179.004525,30.0910931 C179.221719,29.8724696 179.384615,29.4352227 179.384615,28.9979757 Z" id="Shape"></path>
                    </g>
                </g>
            </g>
        </g>
    </g>
</svg>