<?xml version="1.0" encoding="UTF-8"?>
<svg width="78.4262295px" height="78.4262295px" viewBox="0 0 78.4262295 78.4262295" version="1.1" xmlns="http://www.w3.org/2000/svg" xmlns:xlink="http://www.w3.org/1999/xlink">
    <title>Fill 1</title>
    <g id="Page-1" stroke="none" stroke-width="1" fill="none" fill-rule="evenodd">
        <g id="eikonica-click" transform="translate(-1187.5738, -3483.7869)" fill="#000000">
            <g id="footer" transform="translate(0, 3426)">
                <g id="nav" transform="translate(172, 56)">
                    <path d="M1079.29509,1.78688525 C1083.34575,1.78688525 1086.80919,3.22503158 1089.68552,6.10136236 C1092.56185,8.97769314 1094,12.4411314 1094,16.4917914 L1094,65.5081972 C1094,69.5588763 1092.56185,73.0223297 1089.68552,75.8986529 C1086.80919,78.7749745 1083.34575,80.2131148 1079.29509,80.2131148 L1069.69604,80.2131148 L1069.69604,49.8331647 L1079.85673,49.8331647 L1081.38847,37.987548 L1069.69604,37.987548 L1069.69604,30.4308273 C1069.69604,28.5246343 1070.096,27.0950278 1070.89591,26.1418932 C1071.69583,25.1887967 1073.25311,24.7122484 1075.5678,24.7122484 L1081.79697,24.6612006 L1081.79697,14.0920469 C1079.65247,13.7856836 1076.62303,13.6325019 1072.70851,13.6325019 C1068.07917,13.6325019 1064.37742,14.9940574 1061.60322,17.7172066 C1058.82902,20.4403557 1057.44193,24.2867481 1057.44193,29.2564981 L1057.44193,37.987548 L1047.23019,37.987548 L1047.23019,49.8331647 L1057.44193,49.8331647 L1057.44193,80.2131148 L1030.27869,80.2131148 C1026.22801,80.2131148 1022.76456,78.7749745 1019.88823,75.8986529 C1017.01191,73.0223297 1015.57377,69.5588763 1015.57377,65.5081972 L1015.57377,16.4917914 C1015.57377,12.4411314 1017.01191,8.97769314 1019.88823,6.10136236 C1022.76456,3.22503158 1026.22801,1.78688525 1030.27869,1.78688525 L1079.29509,1.78688525 Z" id="Fill-1"></path>
                </g>
            </g>
        </g>
    </g>
</svg>