<?xml version="1.0" encoding="UTF-8"?>
<svg width="78px" height="78px" viewBox="0 0 78 78" version="1.1" xmlns="http://www.w3.org/2000/svg" xmlns:xlink="http://www.w3.org/1999/xlink">
    <title>Fill 1</title>
    <g id="Page-1" stroke="none" stroke-width="1" fill="none" fill-rule="evenodd">
        <g id="eikonica-click" transform="translate(-1078, -3484)" fill="#000000">
            <g id="footer" transform="translate(0, 3426)">
                <g id="nav" transform="translate(172, 56)">
                    <path d="M983.796853,25.0961407 C983.729167,23.3402538 983.542963,21.6519642 983.238287,20.0311854 C982.93361,18.4104067 982.476573,16.8233833 981.867177,15.2701586 L981.96875,15.4727343 C980.953103,12.8389472 979.463563,10.5428872 977.5,8.58442457 C975.536437,6.62600516 973.26824,5.14029129 970.695323,4.12728294 L970.59375,4.12728294 C969.171853,3.58702335 967.66537,3.14807324 966.074213,2.81038939 C964.483057,2.47274875 962.841157,2.30392844 961.148427,2.30392844 L961.046853,2.30392844 C958.947917,2.16886354 957.069027,2.08445338 955.41014,2.05065474 C953.751297,2.01689932 950.281293,2 945,2 C939.718724,2 936.231777,2.01689932 934.539065,2.05065474 C932.846348,2.08445338 930.984384,2.16886354 928.953125,2.30392844 C927.1927,2.30392844 925.516935,2.47274875 923.925782,2.81038939 C922.334626,3.14807324 920.794277,3.58702335 919.304685,4.12728294 L919.40625,4.12728294 C916.83332,5.14029129 914.565115,6.62600516 912.601565,8.58442457 C910.63801,10.5428872 909.148443,12.8051918 908.132812,15.3714681 L908.03125,15.4727343 C907.489581,16.8909374 907.066408,18.3935074 906.761719,19.9805307 C906.45703,21.5675541 906.270834,23.2051889 906.203125,24.8935218 L906.203125,24.8935218 C906.135416,26.9870493 906.084636,28.8610585 906.050781,30.5155927 C906.016927,32.1701701 906,35.6649149 906,41 C906,46.2675699 906,49.7285723 906,51.3831237 C906,53.0376795 906.067708,54.9116845 906.203125,57.0052033 C906.270834,58.6259864 906.45703,60.2298659 906.761719,61.8168892 C907.066408,63.4039083 907.489581,64.9402553 908.03125,66.4259778 C909.04688,69.0597563 910.53645,71.3558379 912.5,73.3142876 C914.46355,75.2727372 916.73176,76.7584373 919.304685,77.7714292 L919.507815,77.7714292 C920.861986,78.3792243 922.334626,78.8519466 923.925782,79.1896106 C925.516935,79.5272746 927.158848,79.7298699 928.851565,79.7974027 L928.953125,79.7974027 C931.052092,79.8649354 932.930982,79.9155843 934.589843,79.9493507 C936.248708,79.9831171 939.718724,80 945,80 C950.281293,80 953.76824,79.9831171 955.460927,79.9493507 C957.153657,79.9155843 959.015603,79.8649354 961.046853,79.7974027 C962.807313,79.7298699 964.483057,79.5441575 966.074213,79.2402602 C967.66537,78.9363624 969.239583,78.4805229 970.796853,77.8727279 L970.59375,77.9740265 C973.166667,76.8935022 975.434907,75.3909201 977.398427,73.4662345 C979.36199,71.5415532 980.851573,69.2961177 981.867177,66.729876 L981.96875,66.5272743 C982.510417,65.0415561 982.93361,63.5052091 983.238287,61.9181857 C983.542963,60.3311667 983.729167,58.7272873 983.796853,57.1064998 C983.864583,55.0129853 983.91537,53.138976 983.949213,51.4844246 C983.983057,49.8298688 984,46.3688664 984,41.1013095 C984,35.8337352 984,32.3558466 984,30.6675569 C984,28.9792241 983.932313,27.1221142 983.796853,25.0961407 Z M945.050627,61 C942.282683,61 939.683551,60.4599198 937.253159,59.3797464 C934.822771,58.3670836 932.696209,56.9493746 930.873416,55.1265807 C929.050623,53.3037867 927.632915,51.1772233 926.620253,48.74683 C925.54008,46.3164409 925,43.7173079 925,40.9493617 C925,38.1814155 925.54008,35.6160269 926.620253,33.2531787 C927.632915,30.8227551 929.050623,28.6962046 930.873416,26.8733977 C932.696209,25.050634 934.822771,23.6328905 937.253159,22.6202536 C939.683551,21.5400845 942.282683,21 945.050627,21 C947.818572,21 950.417682,21.5400845 952.848105,22.6202536 C955.210995,23.6328905 957.3038,25.050634 959.126562,26.8733977 C960.949368,28.6962046 962.367068,30.8227551 963.379747,33.2531787 C964.459916,35.6160269 965,38.1814155 965,40.9493617 C965,43.7173079 964.459916,46.3164409 963.379747,48.74683 C962.367068,51.1772233 960.949368,53.3037867 959.126562,55.1265807 C957.3038,56.9493746 955.210995,58.3670836 952.848105,59.3797464 C950.417682,60.4599198 947.818572,61 945.050627,61 L945.050627,61 Z M966.000023,25 C966.000023,25 966.000023,25 966.000023,25 C966.000023,25 966.000023,25 966.000023,25 C964.623188,25 963.445681,24.5108638 962.467409,23.5325913 C961.489136,22.5543652 961,21.3768116 961,20.0000232 C961,20.0000232 961,20.0000232 961,20.0000232 C961,20.0000232 961,20.0000232 961,20.0000232 L961,20.0000232 C961,18.6231884 961.489136,17.4456348 962.467409,16.4674087 C963.445681,15.4891362 964.623188,15 966.000023,15 C967.376812,15 968.554365,15.4891362 969.532638,16.4674087 C970.510864,17.4456348 971,18.6231884 971,20.0000232 L971,20.0000232 C971,21.3768116 970.510864,22.5543652 969.532638,23.5325913 C968.554365,24.5108638 967.376812,25 966.000023,25 Z M958,41.0000108 C958,44.5885668 956.730463,47.652335 954.19139,50.1914105 C951.652317,52.7304817 948.588559,54 945,54 C941.411441,54 938.34767,52.7304817 935.808593,50.1914105 C933.269519,47.652335 932,44.5885668 932,41.0000108 C932,37.4114548 933.269519,34.347678 935.808593,31.8086068 C938.34767,29.2695356 941.411441,28 945,28 C948.588559,28 951.652317,29.2695356 954.19139,31.8086068 C956.730463,34.347678 958,37.4114548 958,41.0000108 Z" id="Fill-1"></path>
                </g>
            </g>
        </g>
    </g>
</svg>