<?xml version="1.0" encoding="UTF-8"?>
<svg width="78px" height="78px" viewBox="0 0 78 78" version="1.1" xmlns="http://www.w3.org/2000/svg" xmlns:xlink="http://www.w3.org/1999/xlink">
    <title>Fill 1</title>
    <g id="Page-1" stroke="none" stroke-width="1" fill="none" fill-rule="evenodd">
        <g id="eikonica-click" transform="translate(-967, -3484)" fill="#000000">
            <g id="footer" transform="translate(0, 3426)">
                <g id="nav" transform="translate(172, 56)">
                    <path d="M858.375,2 L809.625,2 C805.56248,2 802.109388,3.421875 799.265625,6.265625 C796.421861,9.109375 795,12.5624675 795,16.625 L795,65.375 C795,69.4375195 796.421861,72.890612 799.265625,75.734375 C802.109388,78.5781393 805.56248,80 809.625,80 L858.375,80 C862.437532,80 865.890625,78.5781393 868.734375,75.734375 C871.578125,72.890612 873,69.4375195 873,65.375 L873,16.625 C873,12.5624675 871.578125,9.109375 868.734375,6.265625 C865.890625,3.421875 862.437532,2 858.375,2 Z M825,60 L815,60 L815,26 L825,26 L825,60 Z M823.5,22.6666667 C822.5,23.5555556 821.33334,24 820,24 C818.66666,24 817.5,23.5277867 816.5,22.5833244 C815.5,21.6388978 815,20.4722133 815,19.0833422 C815,17.6944356 815.5,16.5000178 816.5,15.4999822 C817.5,14.4999822 818.66666,14 820,14 C821.33334,14 822.5,14.4999822 823.5,15.4999822 C824.5,16.5000178 825,17.6944356 825,19.0833422 C825,20.4722133 824.5,21.6666667 823.5,22.6666667 Z M859,60 L849.333333,60 L849.333333,39.0535714 C849.333333,36.2202381 848.074669,34.8035714 845.557276,34.8035714 C844.147553,34.8035714 842.939252,35.1577219 841.932276,35.8660876 C840.925331,36.574421 840.321197,37.2827219 840.119776,37.9910552 L839.666667,39.0535714 L839.666667,60 L830,60 L830,26 L839.666667,26 L839.666667,29.1875162 C842.486111,27.0624838 845.708301,26 849.333333,26 C851.649306,26 853.839386,26.9612933 855.903638,28.8839124 C857.96789,30.8065638 859,34.2470076 859,39.205341 L859,60 Z" id="Fill-1"></path>
                </g>
            </g>
        </g>
    </g>
</svg>