<?xml version="1.0" encoding="UTF-8"?>
<svg id="Calque_2" data-name="Calque 2" xmlns="http://www.w3.org/2000/svg" viewBox="0 0 202.62 198.26">
  <defs>
    <style>
      .cls-1 {
        fill: #fff;
      }

      .cls-2 {
        fill: red;
        stroke: red;
        stroke-miterlimit: 10;
        stroke-width: 4px;
      }
    </style>
  </defs>
  <g id="Calque_1-2" data-name="Calque 1">
    <g>
      <path class="cls-2" d="m10.57,88.41h0c9-1.94,11.66-13.51,4.4-19.18h0c-9.2-7.2-2.12-21.86,9.24-19.13h0c8.96,2.15,16.36-7.11,12.29-15.37h0c-5.17-10.48,7.57-20.61,16.62-13.22h0c7.13,5.83,17.83.69,17.74-8.52h0c-.11-11.68,15.77-15.29,20.71-4.7h0c3.9,8.35,15.76,8.36,19.68.02h0c4.97-10.57,20.84-6.93,20.7,4.75h0c-.11,9.21,10.58,14.37,17.72,8.56h0c9.06-7.37,21.78,2.8,16.59,13.26h0c-4.09,8.25,3.29,17.54,12.25,15.4h0c11.36-2.71,18.41,11.97,9.19,19.15h0c-7.27,5.66-4.64,17.23,4.36,19.19h0c11.41,2.49,11.39,18.77-.02,21.24h0c-9,1.94-11.66,13.51-4.4,19.18h0c9.2,7.2,2.12,21.86-9.24,19.13h0c-8.96-2.15-16.36,7.11-12.29,15.37h0c5.17,10.48-7.57,20.61-16.62,13.22h0c-7.13-5.83-17.83-.69-17.74,8.52h0c.11,11.68-15.77,15.29-20.71,4.7h0c-3.9-8.35-15.76-8.36-19.68-.02h0c-4.97,10.57-20.84,6.93-20.7-4.75h0c.11-9.21-10.58-14.37-17.72-8.56h0c-9.06,7.37-21.78-2.8-16.59-13.26h0c4.09-8.25-3.29-17.54-12.25-15.4h0c-11.36,2.71-18.41-11.97-9.19-19.15h0c7.27-5.66,4.64-17.23-4.36-19.19h0c-11.41-2.49-11.39-18.77.02-21.24Z"/>
      <g>
        <path class="cls-1" d="m76.2,35.48l10.97-3.35.75,2.46-7.87,2.4,1.19,3.9,7-2.14.74,2.43-7,2.14,1.33,4.36,7.87-2.4.75,2.46-10.97,3.35-4.76-15.61Z"/>
        <path class="cls-1" d="m100.65,42.41l.53,1.79.45-1.81,4.03-11.54,3.24-.05-5.87,16.42-3.79.06-6.44-16.22,3.43-.06,4.41,11.4Z"/>
        <path class="cls-1" d="m115.5,32.19l11,3.26-.73,2.46-7.89-2.34-1.16,3.91,7.02,2.08-.72,2.44-7.02-2.08-1.3,4.37,7.89,2.34-.73,2.46-11-3.26,4.64-15.65Z"/>
        <path class="cls-1" d="m133.14,38.41l2.84,1.88-.3,11.43-.29,2.48,6.47-10.02,2.69,1.77-9,13.62-2.83-1.87.28-11.41.3-2.54-6.47,10.06-2.7-1.79,9-13.62Z"/>
        <path class="cls-1" d="m150.29,51.37l7.34,8.82-1.97,1.64-5.27-6.33-3.14,2.61,4.68,5.63-1.96,1.63-4.68-5.63-3.5,2.92,5.27,6.33-1.97,1.64-7.34-8.82,12.54-10.44Z"/>
        <path class="cls-1" d="m161.96,66.65l1.52,4.02-8.39,7.59-1.7,1.28,2.13-.14,11.3.11,1.48,3.91-15.26,5.77-1.14-3.01,11.89-4.37-3.95.21-9.57-.13-.82-2.18,7.12-6.46,3.02-2.4-11.76,4.6-1.15-3.03,15.26-5.77Z"/>
        <path class="cls-1" d="m169.32,91.73l.33,11.47-2.57.07-.24-8.23-4.08.12.21,7.32-2.54.07-.21-7.32-4.56.13.24,8.23-2.57.07-.33-11.47,16.31-.47Z"/>
        <path class="cls-1" d="m168.92,110.44l-.9,3.29-10.95,3.29-2.45.5,11.54,3.02-.84,3.1-15.75-4.29.89-3.27,10.92-3.3,2.5-.51-11.57-3,.85-3.13,15.75,4.29Z"/>
        <path class="cls-1" d="m157.38,133.1l2.84-4.42,2.24,1.44-7.42,11.58-2.24-1.44,2.84-4.42-11.5-7.37,1.75-2.73,11.5,7.37Z"/>
        <path class="cls-1" d="m140.23,143.06c1.28,1.65.97,4.02-.68,5.3-1.65,1.28-4.02,1-5.31-.65-1.28-1.65-.98-4.04.67-5.32s4.04-.98,5.32.67Z"/>
        <path class="cls-1" d="m127.88,162.18l-10.89,3.6-.81-2.44,7.81-2.59-1.28-3.87-6.95,2.3-.8-2.42,6.95-2.3-1.43-4.33-7.81,2.59-.81-2.44,10.89-3.6,5.13,15.49Z"/>
        <path class="cls-1" d="m103.24,155.82l-.55-1.79-.43,1.81-3.92,11.58-3.24.09,5.71-16.48,3.79-.1,6.6,16.15-3.43.09-4.53-11.35Z"/>
        <path class="cls-1" d="m88.65,166.37l-11.07-3,.67-2.48,7.94,2.16,1.07-3.94-7.06-1.92.67-2.46,7.06,1.92,1.19-4.4-7.94-2.16.67-2.48,11.07,3-4.27,15.75Z"/>
        <path class="cls-1" d="m70.86,160.55l-2.89-1.81.04-11.43.23-2.49-6.25,10.17-2.72-1.71,8.68-13.82,2.87,1.8-.02,11.41-.24,2.54,6.24-10.2,2.74,1.72-8.68,13.82Z"/>
        <path class="cls-1" d="m53.43,147.99l-7.53-8.65,1.94-1.69,5.41,6.21,3.08-2.68-4.81-5.52,1.92-1.67,4.81,5.52,3.44-2.99-5.41-6.21,1.94-1.69,7.53,8.65-12.31,10.72Z"/>
        <path class="cls-1" d="m41.42,132.98l-1.61-3.98,8.22-7.77,1.67-1.32-2.12.19-11.3.14-1.56-3.87,15.13-6.11,1.2,2.98-11.79,4.63,3.94-.3,9.57-.09.87,2.16-6.98,6.62-2.96,2.47,11.65-4.86,1.21,3-15.13,6.11Z"/>
        <path class="cls-1" d="m33.47,108.04l-.58-11.46,2.56-.13.42,8.22,4.08-.21-.37-7.31,2.54-.13.37,7.31,4.55-.23-.42-8.22,2.56-.13.58,11.46-16.3.83Z"/>
        <path class="cls-1" d="m33.46,89.36l.82-3.31,10.87-3.54,2.44-.56-11.61-2.75.77-3.12,15.84,3.92-.81,3.29-10.84,3.55-2.49.57,11.64,2.73-.78,3.15-15.84-3.92Z"/>
        <path class="cls-1" d="m44.48,66.43l-2.74,4.49-2.27-1.39,7.16-11.74,2.27,1.39-2.74,4.49,11.66,7.11-1.69,2.77-11.66-7.11Z"/>
        <path class="cls-1" d="m61.37,56.11c-1.32-1.62-1.06-4,.56-5.32s4-1.09,5.32.52c1.32,1.62,1.08,4.02-.54,5.34-1.62,1.32-4.02,1.08-5.34-.54Z"/>
      </g>
    </g>
  </g>
</svg>